<svg width="16" height="17" viewBox="0 0 16 17" fill="none" xmlns="http://www.w3.org/2000/svg">
<path d="M8.58069 4.71739C9.38061 4.85145 10.1073 5.22926 10.6874 5.80817C11.2674 6.38708 11.643 7.11224 11.7804 7.91053M8.70283 2.1001C10.1256 2.3408 11.4232 3.01417 12.4551 4.04097C13.4871 5.07082 14.1588 6.36575 14.4 7.7856M13.2886 13.4345C13.2886 13.4345 12.5162 14.1932 12.3269 14.4156C12.0185 14.7447 11.6552 14.9001 11.1789 14.9001C11.1331 14.9001 11.0842 14.9001 11.0385 14.897C10.1317 14.8392 9.28901 14.4857 8.65701 14.1841C6.92894 13.3492 5.41153 12.164 4.15059 10.6619C3.10947 9.40959 2.41336 8.25177 1.95233 7.00864C1.66839 6.24997 1.56459 5.65887 1.61038 5.10129C1.64091 4.7448 1.77831 4.44925 2.03172 4.19636L3.07283 3.15737C3.22244 3.01721 3.3812 2.94104 3.53691 2.94104C3.72926 2.94104 3.88497 3.05682 3.98267 3.15432C3.98572 3.15737 3.98877 3.16042 3.99183 3.16346C4.17807 3.33713 4.35515 3.5169 4.54139 3.70886C4.63604 3.80636 4.73374 3.90386 4.83144 4.0044L5.66494 4.83621C5.98857 5.15918 5.98857 5.45777 5.66494 5.78074C5.5764 5.8691 5.49091 5.95746 5.40237 6.04278C5.14591 6.30481 5.34738 6.10375 5.08175 6.34141C5.07565 6.3475 5.06954 6.35055 5.06649 6.35665C4.80392 6.61868 4.85277 6.87462 4.90772 7.04829C4.91078 7.05743 4.91383 7.06657 4.91688 7.07571C5.13366 7.59978 5.43897 8.09337 5.90304 8.68142L5.9061 8.68447C6.74876 9.72042 7.63722 10.5278 8.61728 11.1464C8.74246 11.2256 8.87069 11.2896 8.99281 11.3505C9.10273 11.4053 9.20653 11.4571 9.29507 11.512C9.30729 11.5181 9.3195 11.5272 9.33171 11.5333C9.43552 11.5851 9.53322 11.6095 9.63397 11.6095C9.88738 11.6095 10.0461 11.4511 10.098 11.3993L10.6965 10.802C10.8003 10.6984 10.9652 10.5735 11.1575 10.5735C11.3468 10.5735 11.5025 10.6923 11.5972 10.7959C11.6002 10.799 11.6002 10.799 11.6033 10.802L13.2856 12.4809C13.6 12.7916 13.2886 13.4345 13.2886 13.4345Z" stroke="#F0DAB8" stroke-width="1.2" stroke-linecap="square" stroke-linejoin="round"/>
</svg>
