<?xml version="1.0" standalone="no"?>
<!DOCTYPE svg PUBLIC "-//W3C//DTD SVG 20010904//EN"
 "http://www.w3.org/TR/2001/REC-SVG-20010904/DTD/svg10.dtd">
<svg version="1.0" xmlns="http://www.w3.org/2000/svg"
 width="1024.000000pt" height="1024.000000pt" viewBox="0 0 1024.000000 1024.000000"
 preserveAspectRatio="xMidYMid meet">

<g transform="translate(0.000000,1024.000000) scale(0.100000,-0.100000)"
fill="#000000" stroke="none">
<path d="M2197 9223 c-3 -4 -4 -861 -2 -1903 3 -1685 5 -1909 19 -2020 39
-296 135 -596 285 -885 309 -599 798 -1057 1425 -1335 283 -125 593 -207 906
-240 139 -14 455 -12 610 5 685 73 1343 395 1818 890 426 444 701 1015 771
1602 8 63 11 649 12 1880 0 983 0 1839 0 1901 l-1 113 -132 -3 -133 -3 -5
-1965 -6 -1965 -21 -98 c-53 -238 -109 -407 -196 -589 -173 -363 -429 -682
-762 -946 -327 -259 -813 -474 -1213 -537 -717 -112 -1411 44 -1990 447 -348
242 -608 530 -816 901 -128 229 -195 412 -263 719 l-27 123 -6 1955 -5 1955
-132 3 c-72 1 -134 -1 -136 -5z"/>
<path d="M2669 9228 c-8 -15 -6 -3590 2 -3713 34 -548 251 -1031 661 -1471 83
-89 271 -245 383 -318 50 -32 102 -67 117 -77 45 -31 209 -116 294 -153 520
-221 1087 -264 1634 -122 337 88 680 264 950 490 400 334 670 756 796 1242 72
279 67 112 71 2222 l4 1902 -141 0 -140 0 0 -1872 c0 -1198 -4 -1905 -10
-1963 -39 -340 -197 -708 -438 -1013 -88 -111 -279 -295 -404 -387 -305 -225
-640 -363 -1023 -421 -155 -23 -452 -23 -610 0 -395 59 -758 214 -1060 450
-460 360 -750 866 -804 1405 -7 68 -11 730 -11 1952 l0 1849 -135 0 c-74 0
-136 -1 -136 -2z"/>
<path d="M3133 7363 c2 -1733 4 -1875 20 -1963 28 -149 55 -245 108 -384 96
-251 232 -459 434 -662 142 -143 227 -209 382 -302 131 -79 160 -93 283 -142
391 -156 806 -190 1200 -100 512 117 944 409 1214 820 146 221 211 362 268
577 66 254 61 94 65 2151 l4 1872 -141 0 -140 0 0 -162 c-1 -90 -2 -944 -3
-1898 l-3 -1735 -22 -97 c-128 -556 -540 -1013 -1092 -1212 -224 -81 -505
-119 -729 -97 -428 40 -784 204 -1085 499 -273 267 -436 595 -475 954 -7 65
-11 709 -11 1923 l0 1825 -140 0 -141 0 4 -1867z"/>
<path d="M3610 7401 c0 -1243 3 -1854 11 -1906 74 -533 461 -989 999 -1178
171 -60 287 -78 500 -78 189 0 277 12 434 58 346 100 632 306 835 603 78 113
124 208 171 349 74 220 70 96 70 2144 l0 1838 -137 -3 -138 -3 -2 -1845 c-3
-2013 0 -1918 -60 -2083 -119 -333 -407 -611 -755 -731 -128 -44 -206 -57
-378 -63 -190 -6 -278 6 -447 62 -190 63 -334 151 -478 293 -135 132 -234 284
-288 442 -66 194 -61 32 -64 2075 l-2 1850 -135 3 -136 3 0 -1830z"/>
<path d="M1368 2156 c-90 -33 -122 -74 -122 -152 0 -93 41 -128 197 -169 112
-29 135 -41 144 -74 8 -31 -31 -67 -83 -77 -53 -10 -153 14 -225 53 -11 6 -51
-66 -44 -77 13 -22 88 -51 158 -62 182 -28 317 40 317 160 0 91 -54 135 -205
168 -95 20 -131 37 -140 64 -25 78 93 114 226 70 34 -12 63 -19 65 -17 2 1 10
20 19 40 l16 38 -48 21 c-61 28 -218 36 -275 14z"/>
<path d="M2562 2152 c-192 -69 -247 -335 -99 -474 18 -17 57 -42 87 -56 46
-22 69 -26 140 -26 71 0 94 4 140 26 109 51 160 126 168 244 4 62 1 79 -23
133 -30 66 -70 108 -138 143 -60 31 -201 36 -275 10z m219 -98 c126 -64 131
-272 8 -334 -108 -56 -235 -20 -275 77 -33 79 -5 201 58 246 50 37 149 42 209
11z"/>
<path d="M3680 1879 l0 -280 203 3 c181 3 206 5 241 24 58 30 81 66 81 124 0
57 -25 97 -73 120 -38 18 -39 22 -9 35 33 15 59 72 53 119 -6 52 -32 86 -86
114 -41 20 -57 22 -227 22 l-183 0 0 -281z m354 170 c31 -24 34 -57 7 -90 -18
-22 -28 -24 -130 -27 l-111 -4 0 71 0 71 104 0 c89 0 107 -3 130 -21z m35
-233 c12 -11 21 -29 21 -42 0 -67 -36 -84 -180 -84 l-110 0 0 76 0 76 124 -4
c105 -2 127 -6 145 -22z"/>
<path d="M4920 1968 c0 -183 1 -196 24 -245 44 -93 151 -143 274 -129 99 12
164 53 203 128 17 33 19 60 19 238 l0 200 -60 0 -60 0 0 -196 0 -196 -33 -33
c-75 -75 -211 -51 -237 43 -5 20 -10 115 -10 210 l0 172 -60 0 -60 0 0 -192z"/>
<path d="M6102 2118 l3 -43 97 -3 98 -3 2 -232 3 -232 34 -3 c19 -2 44 -1 57
2 l24 6 0 230 0 230 100 0 100 0 0 45 0 45 -261 0 -260 0 3 -42z"/>
<path d="M7456 2108 c-60 -136 -161 -360 -191 -425 -18 -39 -31 -74 -27 -77 3
-3 29 -6 59 -6 l53 0 29 65 30 65 134 0 135 0 31 -65 30 -65 55 0 c30 0 57 3
60 8 4 6 -137 330 -214 490 l-30 62 -65 0 -65 0 -24 -52z m143 -180 c23 -53
41 -99 41 -102 0 -4 -43 -6 -95 -6 -52 0 -95 2 -95 4 0 5 81 199 87 209 9 14
19 -4 62 -105z"/>
<path d="M8466 2148 c4 -7 56 -90 116 -184 l108 -170 0 -98 0 -97 57 3 57 3 4
104 4 103 90 142 c50 77 99 152 109 165 11 13 19 28 19 33 0 5 -28 8 -62 6
l-63 -3 -75 -122 c-41 -67 -77 -122 -80 -122 -3 0 -40 56 -84 124 l-78 125
-65 0 c-48 0 -62 -3 -57 -12z"/>
</g>
</svg>
