<svg width="60" height="60" viewBox="0 0 60 60" fill="none" xmlns="http://www.w3.org/2000/svg">
<g clip-path="url(#clip0_9149_4672)">
<path d="M30.0187 40.0312C41.0886 40.0312 50.0625 35.5401 50.0625 30C50.0625 24.4599 41.0886 19.9688 30.0187 19.9688C18.9489 19.9688 9.975 24.4599 9.975 30C9.975 35.5401 18.9489 40.0312 30.0187 40.0312Z" stroke="#4F7A76" stroke-width="2" stroke-miterlimit="10"/>
<path d="M30.0187 50.0625C41.0886 50.0625 50.0625 45.5714 50.0625 40.0313C50.0625 34.4911 41.0886 30 30.0187 30C18.9489 30 9.975 34.4911 9.975 40.0313C9.975 45.5714 18.9489 50.0625 30.0187 50.0625Z" stroke="#4F7A76" stroke-width="2" stroke-miterlimit="10"/>
<path d="M30.0187 30.0376C41.0886 30.0376 50.0625 25.5465 50.0625 20.0063C50.0625 14.4662 41.0886 9.9751 30.0187 9.9751C18.9489 9.9751 9.975 14.4662 9.975 20.0063C9.975 25.5465 18.9489 30.0376 30.0187 30.0376Z" stroke="#4F7A76" stroke-width="2" stroke-miterlimit="10"/>
</g>
<defs>
<clipPath id="clip0_9149_4672">
<rect width="60" height="60" fill="white"/>
</clipPath>
</defs>
</svg>
