<?xml version="1.0" standalone="no"?>
<!DOCTYPE svg PUBLIC "-//W3C//DTD SVG 20010904//EN"
 "http://www.w3.org/TR/2001/REC-SVG-20010904/DTD/svg10.dtd">
<svg version="1.0" xmlns="http://www.w3.org/2000/svg"
 width="1024.000000pt" height="1024.000000pt" viewBox="0 0 1024.000000 1024.000000"
 preserveAspectRatio="xMidYMid meet">

<g transform="translate(0.000000,1024.000000) scale(0.100000,-0.100000)"
fill="#000000" stroke="none">
<path d="M6963 9212 l-123 -3 0 -1787 c-1 -983 -3 -1814 -6 -1847 -30 -347
-128 -617 -324 -891 -94 -132 -243 -284 -350 -357 -203 -140 -318 -200 -492
-258 -445 -149 -906 -118 -1333 91 -191 93 -329 195 -486 358 -202 208 -327
441 -410 759 -57 224 -58 235 -61 1604 -2 690 -4 1496 -6 1792 l-2 537 -130 0
-131 0 3 -1597 c2 -1861 6 -2116 37 -2287 26 -142 100 -373 165 -511 130 -278
346 -535 620 -737 243 -180 591 -316 931 -364 172 -24 454 -15 620 20 248 52
492 147 683 267 139 87 196 130 319 245 269 250 458 569 549 926 61 238 57
104 61 2152 2 1034 0 1882 -4 1885 -4 3 -63 5 -130 3z m-3603 -1771 c0 -1127
4 -1796 10 -1862 25 -246 93 -487 200 -699 212 -422 622 -737 1129 -870 96
-26 291 -50 397 -50 812 0 1514 536 1715 1310 6 25 20 97 30 160 18 109 19
205 19 1943 l0 1827 110 0 111 0 -4 -1877 -3 -1878 -21 -114 c-53 -272 -137
-484 -277 -701 -252 -386 -609 -651 -1081 -803 -481 -154 -972 -116 -1451 113
-160 76 -251 132 -374 230 -105 84 -268 250 -342 350 -165 223 -290 505 -355
803 l-26 122 -7 1055 c-4 580 -8 1425 -9 1878 l-1 822 115 0 115 0 0 -1759z"/>
<path d="M6891 5484 c0 -11 3 -14 6 -6 3 7 2 16 -1 19 -3 4 -6 -2 -5 -13z"/>
<path d="M6882 5415 c0 -16 2 -22 5 -12 2 9 2 23 0 30 -3 6 -5 -1 -5 -18z"/>
<path d="M7011 5355 c-11 -69 -14 -75 -37 -76 -42 -2 -49 -5 -47 -15 1 -6 -4
-11 -12 -11 -7 0 -11 7 -9 16 2 9 -2 3 -10 -14 -11 -21 -15 -24 -16 -12 0 10
-4 15 -10 12 -5 -3 -10 1 -10 9 0 9 4 16 8 16 5 0 9 21 10 48 1 39 -5 25 -38
-90 -77 -268 -180 -474 -329 -658 -25 -30 -36 -48 -26 -40 46 37 264 361 257
383 -1 4 5 10 13 13 8 3 13 10 10 14 -7 11 22 6 32 -5 4 -4 2 -5 -6 0 -9 5
-12 3 -9 -6 3 -8 11 -13 18 -11 7 2 17 -3 21 -10 7 -10 9 -10 9 3 0 8 -5 20
-12 27 -9 9 -5 9 14 0 15 -7 23 -15 19 -18 -4 -3 -8 -13 -8 -22 0 -15 3 -15
15 -5 23 19 8 -22 -54 -148 -61 -124 -39 -105 30 25 65 124 124 278 158 409
27 107 47 241 36 241 -2 0 -10 -34 -17 -75z m-154 -137 c-3 -8 -6 -5 -6 6 -1
11 2 17 5 13 3 -3 4 -12 1 -19z"/>
<path d="M6704 4588 c-20 -29 -27 -44 -16 -34 20 18 66 86 58 86 -2 0 -21 -24
-42 -52z"/>
<path d="M3875 4401 c17 -18 57 -53 90 -78 33 -24 42 -29 20 -11 -21 18 -62
53 -90 78 -35 31 -41 35 -20 11z"/>
<path d="M4030 4276 c0 -2 8 -10 18 -17 15 -13 16 -12 3 4 -13 16 -21 21 -21
13z"/>
<path d="M5408 3933 c7 -3 16 -2 19 1 4 3 -2 6 -13 5 -11 0 -14 -3 -6 -6z"/>
<path d="M5343 3923 c9 -2 25 -2 35 0 9 3 1 5 -18 5 -19 0 -27 -2 -17 -5z"/>
<path d="M4955 3909 c66 -9 258 -9 315 0 27 4 -39 7 -160 7 -121 0 -184 -3
-155 -7z"/>
<path d="M5090 3769 c-25 -5 -13 -7 44 -8 44 0 76 2 73 6 -9 9 -75 10 -117 2z"/>
<path d="M2210 7350 c0 -1255 3 -1892 11 -1958 98 -891 584 -1683 1319 -2149
118 -75 356 -200 470 -246 224 -92 498 -171 700 -202 244 -37 605 -29 892 19
469 80 959 302 1341 610 576 462 990 1246 1057 1998 6 70 10 808 10 1951 l0
1838 -132 -3 -133 -3 -6 -1910 c-6 -2023 -4 -1934 -49 -2162 -124 -620 -512
-1214 -1031 -1576 -595 -415 -1304 -584 -1974 -471 -272 46 -597 159 -827 289
-353 201 -645 452 -858 740 -254 344 -397 681 -492 1155 l-23 115 -5 1910 -5
1910 -132 3 -133 3 0 -1861z m250 8 c1 -1991 -1 -1930 55 -2198 14 -68 53
-208 87 -310 203 -610 593 -1092 1163 -1436 280 -170 607 -290 951 -350 121
-21 491 -30 636 -15 598 62 1188 332 1607 736 152 147 252 268 380 460 217
327 338 641 404 1050 l22 140 -2 1883 -2 1882 118 0 118 0 2 -1742 c2 -1760
-1 -1948 -35 -2178 -59 -402 -245 -863 -505 -1251 -239 -357 -603 -678 -997
-877 -330 -168 -556 -246 -872 -301 -253 -45 -582 -54 -825 -25 -464 56 -989
276 -1414 592 -403 300 -744 767 -937 1278 -86 229 -151 504 -173 729 -9 91
-13 993 -11 3123 l0 652 115 0 115 0 0 -1842z"/>
<path d="M7868 9163 c23 -2 59 -2 80 0 20 2 1 4 -43 4 -44 0 -61 -2 -37 -4z"/>
<path d="M7804 8830 c0 -179 2 -252 3 -162 2 89 2 235 0 325 -1 89 -3 16 -3
-163z"/>
<path d="M7974 9030 c0 -52 1 -74 3 -47 2 26 2 68 0 95 -2 26 -3 4 -3 -48z"/>
<path d="M7971 8784 c0 -11 3 -14 6 -6 3 7 2 16 -1 19 -3 4 -6 -2 -5 -13z"/>
<path d="M2409 5799 c-1 -276 -4 -347 -15 -358 -3 -3 -14 0 -24 7 -16 10 -21
9 -30 -6 -11 -16 -11 -15 -6 2 6 16 4 17 -9 6 -12 -10 -15 -10 -15 4 0 9 -7
19 -15 22 -8 4 -15 15 -15 26 0 18 2 19 18 7 14 -11 14 -10 -2 8 -14 18 -21
47 -27 130 -6 93 -7 85 -3 -57 4 -182 29 -372 69 -525 35 -136 92 -317 106
-335 9 -12 10 -11 4 5 -21 63 -75 248 -75 256 0 5 3 8 8 8 24 -4 52 2 47 11
-3 6 1 7 9 4 11 -4 16 0 16 10 0 9 8 16 18 16 13 0 26 -30 60 -136 24 -75 45
-134 47 -132 2 2 -7 38 -20 80 -102 322 -130 528 -134 1008 -1 123 -4 226 -7
229 -2 2 -4 -128 -5 -290z m9 -401 c-1 -38 -2 -39 -5 -10 -3 20 -8 30 -15 26
-14 -9 -67 -11 -62 -3 7 13 44 17 44 6 0 -7 5 -4 11 6 17 29 29 19 27 -25z
m-21 -343 c0 -18 -19 -15 -25 3 -2 7 3 12 11 12 7 0 14 -7 14 -15z"/>
<path d="M7961 5694 c0 -11 3 -14 6 -6 3 7 2 16 -1 19 -3 4 -6 -2 -5 -13z"/>
<path d="M7802 5560 c-2 -86 -18 -244 -38 -370 -4 -25 -4 -43 -1 -40 16 14 48
302 45 400 l-4 105 -2 -95z"/>
<path d="M7962 5625 c0 -16 2 -22 5 -12 2 9 2 23 0 30 -3 6 -5 -1 -5 -18z"/>
<path d="M2320 5584 c0 -8 5 -12 10 -9 6 4 8 11 5 16 -9 14 -15 11 -15 -7z"/>
<path d="M2336 5558 c-11 -16 -13 -25 -4 -35 8 -9 7 -13 -1 -13 -7 0 -9 -4 -6
-10 3 -5 1 -10 -6 -10 -19 0 -5 -10 21 -15 16 -3 19 -1 12 8 -11 14 -10 66 1
85 14 21 -1 13 -17 -10z"/>
<path d="M7947 5510 c-4 -41 -10 -104 -12 -140 -3 -56 -2 -52 11 30 8 52 13
115 12 140 -3 38 -4 34 -11 -30z"/>
<path d="M7916 5244 c-4 -31 -5 -59 -2 -61 2 -3 8 21 11 52 4 31 5 58 3 61 -3
2 -8 -21 -12 -52z"/>
<path d="M7902 5150 c0 -14 2 -19 5 -12 2 6 2 18 0 25 -3 6 -5 1 -5 -13z"/>
<path d="M7751 5114 c0 -11 3 -14 6 -6 3 7 2 16 -1 19 -3 4 -6 -2 -5 -13z"/>
<path d="M7742 5070 c0 -14 2 -19 5 -12 2 6 2 18 0 25 -3 6 -5 1 -5 -13z"/>
<path d="M2456 4690 c3 -14 11 -32 16 -40 6 -10 7 -7 2 10 -3 14 -11 32 -16
40 -6 10 -7 7 -2 -10z"/>
<path d="M3110 3883 c18 -24 35 -43 37 -43 7 0 -35 56 -54 71 -9 8 -2 -5 17
-28z"/>
<path d="M3236 3752 c5 -5 47 -42 94 -82 47 -41 94 -81 105 -89 l20 -15 -20
20 c-37 39 -194 174 -201 174 -5 0 -4 -4 2 -8z"/>
<path d="M3470 3556 c0 -2 8 -10 18 -17 15 -13 16 -12 3 4 -13 16 -21 21 -21
13z"/>
<path d="M6020 3150 c-8 -5 -10 -10 -5 -10 6 0 17 5 25 10 8 5 11 10 5 10 -5
0 -17 -5 -25 -10z"/>
<path d="M5875 3104 c-136 -42 -310 -78 -475 -99 -144 -17 -438 -20 -576 -4
-53 6 -98 8 -100 6 -3 -3 41 -10 98 -16 132 -15 210 -28 178 -30 -34 -1 -50
-19 -50 -53 0 -23 4 -28 25 -28 15 0 24 -5 22 -12 -4 -21 -19 -27 -62 -23 -32
3 -35 2 -15 -4 41 -15 298 -12 456 4 158 17 246 31 384 64 102 24 212 63 163
57 -31 -4 -33 -2 -33 25 0 16 -5 29 -11 29 -5 0 -8 4 -5 9 3 5 -3 11 -14 14
-41 11 -19 33 60 61 44 15 80 30 80 32 0 7 -12 4 -125 -32z m-815 -248 c0 -3
-4 -8 -10 -11 -5 -3 -10 -1 -10 4 0 6 5 11 10 11 6 0 10 -2 10 -4z"/>
<path d="M4678 3013 c6 -2 18 -2 25 0 6 3 1 5 -13 5 -14 0 -19 -2 -12 -5z"/>
<path d="M4858 2843 c7 -3 16 -2 19 1 4 3 -2 6 -13 5 -11 0 -14 -3 -6 -6z"/>
<path d="M2660 7383 c0 -2002 -1 -1947 60 -2213 183 -800 685 -1413 1420
-1733 451 -196 887 -249 1380 -166 420 70 866 280 1199 565 245 209 441 464
592 769 106 216 174 428 222 695 20 113 20 149 24 2013 l4 1897 -130 0 -130 0
-4 -1857 c-3 -1721 -4 -1866 -20 -1963 -84 -499 -267 -875 -587 -1204 -328
-338 -737 -551 -1230 -640 -440 -80 -932 -2 -1365 216 -221 112 -471 311 -649
519 -255 296 -403 618 -492 1069 -23 114 -32 812 -33 2443 l-1 1417 -130 0
-130 0 0 -1827z m250 25 c0 -1847 2 -1924 41 -2123 45 -225 152 -521 251 -690
284 -486 743 -843 1298 -1009 442 -133 930 -110 1399 65 770 288 1291 945
1403 1769 10 75 13 488 13 1937 l0 1843 113 0 112 0 2 -1197 c4 -1695 -1
-2463 -17 -2603 -61 -534 -329 -1079 -707 -1435 -241 -228 -554 -420 -893
-548 -535 -202 -1155 -195 -1690 20 -321 129 -609 316 -835 543 -370 372 -577
783 -693 1375 -21 110 -21 113 -24 1978 l-3 1867 115 0 115 0 0 -1792z"/>
<path d="M7352 8810 c0 -14 2 -19 5 -12 2 6 2 18 0 25 -3 6 -5 1 -5 -13z"/>
<path d="M7351 8734 c0 -11 3 -14 6 -6 3 7 2 16 -1 19 -3 4 -6 -2 -5 -13z"/>
<path d="M7353 8600 c0 -25 2 -35 4 -22 2 12 2 32 0 45 -2 12 -4 2 -4 -23z"/>
<path d="M7351 8414 c0 -11 3 -14 6 -6 3 7 2 16 -1 19 -3 4 -6 -2 -5 -13z"/>
<path d="M2865 6380 c0 -366 1 -515 2 -332 2 182 2 482 0 665 -1 182 -2 33 -2
-333z"/>
<path d="M7496 5473 c-4 -32 -18 -105 -31 -163 -19 -84 -23 -97 -24 -62 -1 32
-5 42 -17 42 -9 0 -14 -6 -11 -13 4 -10 -3 -14 -21 -13 -18 1 -26 6 -24 15 3
12 1 12 -14 0 -16 -13 -16 -7 -11 91 l6 105 -18 -115 c-20 -123 -49 -255 -82
-359 -21 -68 -20 -98 2 -34 11 33 13 35 21 18 7 -17 8 -16 4 5 -7 33 14 116
25 99 4 -8 3 -16 -3 -20 -7 -4 -7 -9 0 -13 6 -3 17 0 24 8 23 22 55 29 61 11
4 -8 12 -13 19 -11 7 1 10 1 5 -1 -4 -3 -4 -10 0 -16 5 -9 3 -9 -8 0 -9 8 -20
9 -29 3 -15 -9 -13 -11 12 -14 22 -2 20 -31 -11 -127 -17 -51 -29 -95 -27 -96
3 -4 65 168 85 237 32 110 93 480 78 480 -2 0 -7 -26 -11 -57z m-106 -227 c0
-2 -7 -7 -16 -10 -8 -3 -12 -2 -9 4 6 10 25 14 25 6z m30 -96 c6 0 10 -5 10
-12 0 -6 -9 -3 -21 8 -21 19 -21 19 -18 0 2 -10 -2 -21 -10 -24 -11 -3 -12 0
-6 14 4 11 10 33 13 49 l5 30 9 -32 c5 -18 13 -33 18 -33z m20 30 c0 -5 -7 -7
-15 -4 -8 4 -12 10 -9 15 6 11 24 2 24 -11z m-35 -88 c-3 -3 -11 0 -18 7 -9
10 -8 11 6 5 10 -3 15 -9 12 -12z"/>
<path d="M7206 4875 c-9 -26 -7 -32 5 -12 6 10 9 21 6 23 -2 3 -7 -2 -11 -11z"/>
<path d="M3535 4095 c33 -31 83 -75 110 -98 28 -22 5 2 -49 54 -54 52 -104 96
-110 98 -6 2 16 -22 49 -54z"/>
<path d="M3715 3940 c10 -11 20 -20 23 -20 3 0 -3 9 -13 20 -10 11 -20 20 -23
20 -3 0 3 -9 13 -20z"/>
<path d="M5518 3483 c7 -3 16 -2 19 1 4 3 -2 6 -13 5 -11 0 -14 -3 -6 -6z"/>
<path d="M4748 3473 c7 -3 16 -2 19 1 4 3 -2 6 -13 5 -11 0 -14 -3 -6 -6z"/>
<path d="M5395 3468 c-58 -12 -438 -16 -540 -6 l-70 6 65 -13 c36 -8 99 -15
140 -16 41 -1 65 -4 53 -6 -20 -4 -21 -7 -10 -25 9 -16 9 -22 -1 -25 -7 -3
-17 -14 -24 -26 -10 -20 -10 -21 5 -9 14 12 16 11 14 -7 0 -11 -5 -17 -9 -15
-4 3 -8 0 -8 -5 0 -7 -25 -9 -72 -6 -67 4 -69 4 -28 -6 52 -12 422 -4 485 10
39 9 39 9 -25 11 -36 2 -73 3 -82 2 -11 -1 -15 4 -12 12 3 7 17 13 32 14 15 0
33 0 40 1 14 1 16 47 2 56 -27 17 -4 32 73 47 45 8 69 15 52 15 -16 1 -52 -4
-80 -9z m-332 -127 c-4 -3 -11 -10 -15 -15 -4 -4 -6 1 -5 12 1 12 6 18 15 15
7 -3 10 -9 5 -12z m194 -17 c-3 -3 -12 -4 -19 -1 -8 3 -5 6 6 6 11 1 17 -2 13
-5z"/>
<path d="M3573 7373 l3 -1838 27 -123 c54 -245 119 -401 243 -588 63 -95 241
-282 334 -350 187 -138 431 -244 665 -290 126 -25 406 -25 530 -1 369 73 679
248 895 503 189 224 299 456 356 754 17 90 19 201 22 1933 l3 1837 -131 0
-130 0 -1 -1707 c-1 -940 -3 -1724 -4 -1743 -2 -19 -6 -75 -9 -125 -26 -353
-150 -626 -387 -850 -400 -375 -975 -457 -1470 -209 -112 56 -227 143 -325
247 -169 178 -261 361 -326 642 l-22 100 -3 1823 -3 1822 -136 0 -135 0 4
-1837z m250 20 l3 -1808 27 -120 c68 -306 179 -511 381 -702 336 -318 823
-423 1280 -276 391 126 698 428 824 813 57 172 63 241 72 760 5 267 9 1082 9
1813 l1 1327 110 0 110 0 -5 -1737 c-3 -956 -7 -1786 -10 -1845 -26 -539 -348
-1028 -830 -1259 -324 -156 -686 -202 -999 -129 -266 62 -533 203 -718 378
-250 238 -387 499 -465 882 -15 78 -17 231 -20 1898 l-4 1812 115 0 115 0 4
-1807z"/>
<path d="M6280 5060 c-6 -11 -8 -20 -6 -20 3 0 10 9 16 20 6 11 8 20 6 20 -3
0 -10 -9 -16 -20z"/>
<path d="M6189 4913 c-13 -16 -12 -17 4 -4 16 13 21 21 13 21 -2 0 -10 -8 -17
-17z"/>
<path d="M6159 4873 c-13 -16 -12 -17 4 -4 16 13 21 21 13 21 -2 0 -10 -8 -17
-17z"/>
<path d="M6301 4817 c-13 -21 -12 -21 5 -5 10 10 16 20 13 22 -3 3 -11 -5 -18
-17z"/>
<path d="M6089 4793 l-34 -38 38 34 c34 33 42 41 34 41 -2 0 -19 -17 -38 -37z"/>
<path d="M5018 4368 c38 -5 93 -5 135 0 68 9 64 9 -63 9 -121 1 -128 0 -72 -9z"/>
<path d="M1363 2184 c-55 -20 -112 -83 -115 -127 -5 -113 40 -156 205 -198 98
-24 137 -48 137 -85 0 -39 -51 -64 -131 -64 -54 0 -77 6 -129 32 -61 30 -63
30 -77 12 -8 -10 -13 -35 -11 -53 3 -32 8 -37 63 -60 51 -22 76 -26 160 -26
86 0 106 3 144 23 60 33 88 63 101 111 23 87 -23 158 -126 192 -76 25 -80 18
-5 -10 129 -47 160 -153 69 -238 -64 -60 -200 -75 -318 -34 -36 12 -68 26 -73
30 -4 4 -4 21 -1 38 l6 31 57 -26 c95 -44 216 -43 265 3 65 61 8 125 -141 155
-80 17 -149 54 -168 90 -33 64 -7 136 63 177 61 36 197 45 270 18 26 -10 50
-21 55 -24 7 -7 -10 -71 -20 -71 -3 0 -18 9 -34 21 -40 28 -151 37 -201 16
-45 -19 -76 -62 -61 -86 13 -21 60 -48 98 -56 20 -5 13 2 -22 19 -58 28 -67
50 -32 82 14 12 40 19 85 22 54 4 72 0 120 -23 30 -15 57 -25 59 -24 1 2 10
22 19 43 15 36 15 41 0 57 -42 46 -220 65 -311 33z"/>
<path d="M2535 2176 c-110 -46 -175 -145 -175 -267 0 -122 56 -216 158 -266
50 -24 69 -28 147 -28 72 0 100 5 138 22 74 35 123 79 152 137 74 151 17 319
-132 392 -83 41 -204 45 -288 10z m271 -15 c139 -61 202 -215 140 -347 -48
-102 -114 -152 -232 -173 -110 -20 -249 37 -299 123 -36 62 -49 169 -29 237
21 70 100 151 171 173 67 22 183 16 249 -13z"/>
<path d="M2600 2115 c-129 -41 -166 -182 -88 -333 13 -24 84 -72 108 -72 7 0
-7 10 -31 23 -129 68 -126 288 5 348 128 58 267 -35 266 -177 0 -33 -33 -109
-58 -137 -25 -28 -72 -50 -122 -58 l-45 -6 41 -2 c63 -2 123 35 162 99 27 46
32 64 32 117 0 67 -21 123 -56 154 -57 50 -142 67 -214 44z"/>
<path d="M2426 1978 c-3 -13 -1 -24 4 -26 6 -2 10 -10 10 -18 0 -32 18 -11 22
26 3 32 0 40 -13 40 -9 0 -19 -10 -23 -22z"/>
<path d="M2902 1970 c0 -14 2 -19 5 -12 2 6 2 18 0 25 -3 6 -5 1 -5 -13z"/>
<path d="M2902 1903 c-2 -21 0 -34 4 -31 10 10 15 68 6 68 -4 0 -9 -17 -10
-37z"/>
<path d="M2442 1890 c0 -14 2 -19 5 -12 2 6 2 18 0 25 -3 6 -5 1 -5 -13z"/>
<path d="M3687 2184 c-4 -4 -7 -133 -7 -286 l0 -278 175 0 c195 0 256 14 309
69 56 59 50 160 -13 210 l-30 23 26 35 c37 48 36 109 -1 157 -49 65 -70 71
-271 74 -99 2 -183 0 -188 -4z m388 -28 c40 -18 55 -32 69 -64 21 -47 17 -72
-20 -127 l-26 -38 32 -25 c68 -53 74 -137 15 -196 -46 -46 -97 -56 -287 -56
l-163 0 3 258 c1 141 2 260 2 265 0 4 73 7 163 7 149 0 166 -2 212 -24z"/>
<path d="M3789 2116 c-8 -9 6 -170 16 -173 6 -2 10 27 10 74 l0 78 86 0 c105
-1 139 -17 139 -69 0 -37 -22 -62 -60 -69 l-25 -4 26 -2 c75 -4 108 93 48 143
-28 24 -37 26 -133 26 -57 0 -105 -2 -107 -4z"/>
<path d="M3748 2103 c7 -3 16 -2 19 1 4 3 -2 6 -13 5 -11 0 -14 -3 -6 -6z"/>
<path d="M3746 2064 c-9 -24 -7 -31 4 -14 7 11 10 7 10 -19 0 -43 8 -37 14 12
5 38 -15 54 -28 21z"/>
<path d="M4083 1967 c-34 -23 -42 -37 -20 -37 13 0 36 21 51 48 9 15 8 15 -31
-11z"/>
<path d="M3760 1876 c0 -35 -3 -44 -14 -40 -10 4 -14 0 -12 -13 3 -17 8 -19
36 -14 6 0 11 18 12 39 1 20 4 -3 7 -53 l6 -90 105 0 c128 0 167 17 187 80 6
22 12 32 12 22 1 -10 8 -20 16 -23 8 -4 12 -10 9 -15 -3 -5 6 -9 19 -9 19 0
24 5 22 18 -2 9 -6 29 -10 44 -6 32 -45 61 -69 52 -12 -5 -14 -10 -6 -19 6 -8
-6 -5 -27 6 -20 10 -45 19 -55 19 -10 0 -18 5 -18 11 0 5 -4 7 -10 4 -9 -6
-115 7 -182 21 -27 6 -28 5 -28 -40z m283 -30 c21 -10 31 -46 22 -76 -12 -39
-50 -53 -156 -58 l-99 -5 0 75 c0 41 2 77 4 79 7 7 210 -6 229 -15z"/>
<path d="M4890 1999 c0 -223 7 -256 66 -316 120 -119 373 -85 443 59 22 47 25
90 23 311 l-2 138 -57 -3 -58 -3 -6 -185 c-5 -194 -11 -222 -58 -264 -29 -27
-100 -32 -144 -11 -67 31 -71 47 -77 265 l-5 195 -62 3 -63 3 0 -192z m112 -8
c3 -207 6 -216 70 -264 37 -28 114 -33 158 -10 66 35 75 64 78 276 l4 187 48
0 48 0 -2 -187 c-1 -112 -7 -199 -13 -214 -62 -145 -304 -188 -421 -76 -65 62
-67 72 -67 284 l0 193 47 0 46 0 4 -189z"/>
<path d="M4960 2015 c0 -8 4 -15 10 -15 5 0 7 7 4 15 -4 8 -8 15 -10 15 -2 0
-4 -7 -4 -15z"/>
<path d="M4966 1893 c10 -40 14 -41 14 -5 0 18 -5 32 -10 32 -6 0 -8 -11 -4
-27z"/>
<path d="M5339 1779 c-6 -13 -7 -19 -1 -15 6 3 13 0 15 -6 3 -7 6 -1 6 15 1
32 -4 34 -20 6z"/>
<path d="M6070 2140 l0 -50 100 0 100 0 0 -235 0 -235 65 0 65 0 0 235 0 235
101 0 100 0 -3 48 -3 47 -262 3 -263 2 0 -50z m510 8 l0 -33 -97 0 -98 0 0
-235 0 -235 -47 0 -48 0 0 238 0 239 -103 -4 -103 -3 0 33 0 32 248 0 248 0 0
-32z"/>
<path d="M6333 2143 c9 -2 23 -2 30 0 6 3 -1 5 -18 5 -16 0 -22 -2 -12 -5z"/>
<path d="M6310 2103 c0 -11 20 -40 20 -29 0 5 7 3 15 -4 20 -17 19 -5 -2 20
-18 20 -33 26 -33 13z"/>
<path d="M6320 2045 c0 -8 2 -15 4 -15 2 0 6 7 10 15 3 8 1 15 -4 15 -6 0 -10
-7 -10 -15z"/>
<path d="M6326 1990 c4 -19 10 -40 15 -46 6 -8 4 -14 -6 -18 -10 -3 -15 -19
-15 -47 0 -48 8 -49 12 -2 1 18 6 30 10 27 4 -3 5 -10 3 -17 -2 -7 0 -28 5
-47 8 -30 9 -26 5 25 -2 34 0 66 4 74 11 18 1 61 -14 61 -7 0 -16 6 -19 13 -3
6 -3 -4 0 -23z"/>
<path d="M6343 1729 c-1 -17 2 -27 7 -24 12 7 13 42 3 48 -5 3 -9 -8 -10 -24z"/>
<path d="M7461 2173 c-5 -10 -30 -65 -56 -123 -26 -58 -80 -175 -121 -261 -41
-86 -74 -159 -74 -163 0 -3 28 -6 63 -6 l63 0 31 70 31 70 131 0 131 0 33 -67
32 -68 63 -3 c34 -2 62 1 62 6 0 13 -22 64 -86 199 -30 65 -78 168 -106 228
-28 61 -55 116 -61 123 -6 7 -33 12 -68 12 -45 0 -60 -4 -68 -17z m189 -130
c35 -76 87 -187 115 -248 75 -159 74 -151 18 -151 l-48 1 -31 68 c-17 37 -33
69 -35 72 -3 2 -65 5 -139 6 l-135 2 -34 -70 c-33 -70 -35 -71 -78 -78 -25 -4
-47 -4 -50 -2 -2 3 13 40 35 83 22 44 74 156 117 249 42 94 81 178 86 188 7
13 22 17 62 17 l53 0 64 -137z"/>
<path d="M7501 2057 c-12 -27 -21 -51 -21 -54 0 -3 -18 -40 -40 -83 l-39 -79
130 0 c116 0 129 2 118 16 -7 8 -39 67 -70 131 l-58 117 -20 -48z m74 -98 c25
-50 45 -95 45 -100 0 -6 -40 -9 -90 -8 -49 1 -90 3 -90 5 0 2 15 38 34 81 18
43 36 86 39 96 4 9 9 17 12 17 3 0 25 -41 50 -91z"/>
<path d="M7601 2060 c-1 -8 3 -22 9 -30 6 -9 5 -17 -2 -21 -6 -4 -6 -9 -1 -12
5 -3 14 -3 20 1 8 5 5 18 -8 42 -10 19 -18 28 -18 20z"/>
<path d="M8443 2178 c3 -7 53 -92 111 -188 l106 -174 0 -98 0 -98 65 0 65 0 0
105 0 105 81 132 c45 73 95 152 110 175 16 23 29 44 29 48 0 3 -30 5 -67 3
l-68 -3 -70 -117 c-38 -64 -73 -119 -76 -122 -3 -4 -38 50 -78 119 l-72 125
-71 0 c-52 0 -69 -3 -65 -12z m137 -9 c0 -6 32 -66 71 -132 83 -139 63 -143
167 30 l67 113 48 0 c26 0 47 -2 47 -4 0 -3 -25 -41 -56 -85 -30 -45 -72 -110
-93 -146 -21 -35 -41 -61 -45 -58 -4 4 -4 0 -1 -9 4 -9 2 -19 -4 -23 -7 -4
-11 -47 -11 -108 l0 -102 -50 0 -50 0 0 100 c0 113 9 91 -137 317 -40 62 -73
113 -73 115 0 2 27 3 60 3 38 0 60 -4 60 -11z"/>
<path d="M8728 1673 c7 -3 16 -2 19 1 4 3 -2 6 -13 5 -11 0 -14 -3 -6 -6z"/>
<path d="M1488 1963 c7 -3 16 -2 19 1 4 3 -2 6 -13 5 -11 0 -14 -3 -6 -6z"/>
</g>
</svg>
