<svg width="24" height="24" viewBox="0 0 24 24" fill="none" xmlns="http://www.w3.org/2000/svg">
<path d="M12.0004 14.4L11.3442 15.1546C11.7205 15.4818 12.2803 15.4818 12.6566 15.1546L12.0004 14.4ZM6.87357 15.2543L7.83553 14.9811L7.28917 13.0572L6.32721 13.3304L6.87357 15.2543ZM17.6736 13.3304L16.7116 13.0572L16.1652 14.9811L17.1272 15.2543L17.6736 13.3304ZM15.8004 7.09568C15.8004 7.64025 15.5851 8.31643 15.1709 9.08168C14.764 9.83355 14.2089 10.592 13.6333 11.2802C13.0605 11.9651 12.4849 12.5598 12.0511 12.9841C11.8348 13.1957 11.6553 13.3634 11.5311 13.4772C11.469 13.5341 11.4209 13.5774 11.3889 13.6059C11.373 13.6201 11.361 13.6306 11.3535 13.6373C11.3497 13.6406 11.347 13.643 11.3455 13.6443C11.3447 13.645 11.3442 13.6454 11.344 13.6456C11.3439 13.6457 11.3438 13.6457 11.3439 13.6457C11.3439 13.6457 11.344 13.6456 11.344 13.6456C11.3441 13.6455 11.3442 13.6454 12.0004 14.4C12.6566 15.1546 12.6567 15.1545 12.6569 15.1543C12.657 15.1543 12.6572 15.1541 12.6573 15.154C12.6577 15.1537 12.6581 15.1533 12.6585 15.1529C12.6595 15.1521 12.6607 15.151 12.6623 15.1497C12.6653 15.147 12.6695 15.1433 12.6748 15.1386C12.6854 15.1293 12.7005 15.116 12.7197 15.0989C12.758 15.0647 12.813 15.0153 12.8822 14.9519C13.0204 14.8252 13.216 14.6424 13.4497 14.4138C13.9159 13.9577 14.5403 13.3132 15.1675 12.5633C15.7919 11.8167 16.4368 10.9448 16.9299 10.0336C17.4157 9.13579 17.8004 8.11632 17.8004 7.09568H15.8004ZM12.0004 14.4C12.6566 13.6454 12.6567 13.6455 12.6568 13.6456C12.6568 13.6456 12.6569 13.6457 12.6569 13.6457C12.6569 13.6457 12.6569 13.6457 12.6568 13.6456C12.6566 13.6454 12.6561 13.645 12.6553 13.6443C12.6537 13.643 12.6511 13.6406 12.6473 13.6373C12.6397 13.6306 12.6278 13.6201 12.6119 13.6059C12.5799 13.5774 12.5317 13.5341 12.4697 13.4772C12.3454 13.3634 12.166 13.1957 11.9497 12.9841C11.5159 12.5598 10.9403 11.9651 10.3675 11.2802C9.7919 10.592 9.23676 9.83355 8.82986 9.08168C8.41573 8.31643 8.20039 7.64025 8.20039 7.09568H6.20039C6.20039 8.11632 6.58506 9.13579 7.07092 10.0336C7.56403 10.9448 8.20888 11.8167 8.83331 12.5633C9.46052 13.3132 10.0849 13.9577 10.5511 14.4138C10.7848 14.6424 10.9803 14.8252 11.1186 14.9519C11.1878 15.0153 11.2428 15.0647 11.2811 15.0989C11.3003 15.116 11.3153 15.1293 11.326 15.1386C11.3313 15.1433 11.3355 15.147 11.3385 15.1497C11.34 15.151 11.3413 15.1521 11.3422 15.1529C11.3427 15.1533 11.3431 15.1537 11.3434 15.154C11.3436 15.1541 11.3438 15.1543 11.3439 15.1543C11.3441 15.1545 11.3442 15.1546 12.0004 14.4ZM8.20039 7.09568C8.20039 5.07523 9.88088 3.40002 12.0004 3.40002V1.40002C8.81797 1.40002 6.20039 3.92945 6.20039 7.09568H8.20039ZM12.0004 3.40002C14.1199 3.40002 15.8004 5.07523 15.8004 7.09568H17.8004C17.8004 3.92945 15.1828 1.40002 12.0004 1.40002V3.40002ZM20.6004 17.6C20.6004 17.804 20.5054 18.0888 20.1442 18.4446C19.7794 18.8039 19.2003 19.1736 18.404 19.5054C16.8158 20.1671 14.5523 20.6 12.0004 20.6V22.6C14.7504 22.6 17.2869 22.1375 19.1732 21.3515C20.1142 20.9595 20.9409 20.4672 21.5478 19.8694C22.1581 19.2682 22.6004 18.5007 22.6004 17.6H20.6004ZM12.0004 20.6C9.44845 20.6 7.18502 20.1671 5.59678 19.5054C4.80048 19.1736 4.22135 18.8039 3.85659 18.4446C3.49535 18.0888 3.40039 17.804 3.40039 17.6H1.40039C1.40039 18.5007 1.84269 19.2682 2.45302 19.8694C3.05983 20.4672 3.88659 20.9595 4.82755 21.3515C6.71383 22.1375 9.25039 22.6 12.0004 22.6V20.6ZM3.40039 17.6C3.40039 17.349 3.55143 16.9618 4.16014 16.4927C4.75881 16.0312 5.67899 15.5936 6.87357 15.2543L6.32721 13.3304C4.98646 13.7112 3.80664 14.2399 2.93915 14.9086C2.08169 15.5695 1.40039 16.4762 1.40039 17.6H3.40039ZM17.1272 15.2543C18.3218 15.5936 19.242 16.0312 19.8406 16.4927C20.4493 16.9618 20.6004 17.349 20.6004 17.6H22.6004C22.6004 16.4762 21.9191 15.5695 21.0616 14.9086C20.1941 14.2399 19.0143 13.7112 17.6736 13.3304L17.1272 15.2543Z" fill="#FDFDFD"/>
</svg>
