<?xml version="1.0" encoding="utf-8"?>
<svg xmlns="http://www.w3.org/2000/svg" viewBox="0 0 500 500">
  <g id="Layer_1" transform="matrix(0.76013, 0, 0, 0.834999, -134.533813, -43.615017)" style="">
    <path class="st0" d="M 209.972 217.162 L 209.972 272.042 L 209.972 217.162 Z" style="fill: rgb(43, 37, 35); stroke-width: 1;"/>
  </g>
  <g fill="rgb(43, 37, 35)" transform="matrix(1, 0, 0, 1, 43.759811, 18.564913)">
    <path d="M 25 217 L 75 217 L 75 230 L 38 230 L 38 238 L 75 238 L 75 272 L 25 272 L 25 259 L 62 259 L 62 251 L 25 251 Z"/>
    <path d="M 85 217 L 135 217 L 135 272 L 85 272 Z M 98 230 L 98 259 L 122 259 L 122 230 Z"/>
    <path d="M 145 217 L 185 217 C 195 217 198 222 198 228 C 198 235 194 240 185 242 C 194 244 198 250 198 258 C 198 268 193 272 185 272 L 145 272 Z M 158 230 L 158 240 L 182 240 C 185 240 185 230 182 230 Z M 158 250 L 158 260 L 182 260 C 185 260 185 250 182 250 Z"/>
    <path d="M 210 217 L 223 217 L 223 259 L 247 259 L 247 217 L 260 217 L 260 272 L 210 272 Z"/>
    <path d="M 275 217 L 330 217 L 330 230 L 311 230 L 311 272 L 297 272 L 297 230 L 275 230 Z"/>
    <path d="M 355 217 L 370 217 L 388 272 L 374 272 L 371 260 L 352 260 L 349 272 L 335 272 Z M 356 248 L 368 248 L 362 230 Z"/>
    <path d="M 400 217 L 414 217 L 425 242 L 436 217 L 450 217 L 432 252 L 432 272 L 418 272 L 418 252 Z"/>
  </g>
</svg>