<svg width="25" height="25" viewBox="0 0 25 25" fill="none" xmlns="http://www.w3.org/2000/svg">
<path d="M0.5 24.4999L2.187 18.337C1.146 16.533 0.599 14.488 0.6 12.391C0.603 5.83499 5.93799 0.5 12.493 0.5C15.674 0.501 18.66 1.74 20.906 3.98799C23.1509 6.23599 24.3869 9.22398 24.3859 12.402C24.3829 18.959 19.048 24.2939 12.493 24.2939C10.503 24.2929 8.54198 23.7939 6.80499 22.846L0.5 24.4999ZM7.09698 20.693C8.77298 21.688 10.373 22.284 12.489 22.285C17.937 22.285 22.375 17.851 22.378 12.4C22.38 6.93799 17.963 2.51 12.497 2.508C7.04498 2.508 2.61 6.94199 2.608 12.392C2.607 14.617 3.25899 16.283 4.35399 18.026L3.35499 21.674L7.09698 20.693ZM18.484 15.229C18.41 15.105 18.212 15.031 17.914 14.882C17.617 14.733 16.156 14.014 15.883 13.915C15.611 13.816 15.413 13.766 15.214 14.064C15.016 14.361 14.446 15.031 14.273 15.229C14.1 15.427 13.926 15.452 13.629 15.303C13.332 15.154 12.374 14.841 11.239 13.828C10.356 13.04 9.75898 12.067 9.58598 11.769C9.41298 11.472 9.56798 11.311 9.71598 11.163C9.84998 11.03 10.013 10.816 10.162 10.642C10.313 10.47 10.362 10.346 10.462 10.147C10.561 9.94898 10.512 9.77498 10.437 9.62598C10.362 9.47798 9.76798 8.01498 9.52098 7.41998C9.27898 6.84099 9.03398 6.91899 8.85198 6.90999L8.28198 6.89999C8.08398 6.89999 7.76198 6.97399 7.48998 7.27199C7.21798 7.56998 6.44999 8.28798 6.44999 9.75098C6.44999 11.214 7.51498 12.627 7.66298 12.825C7.81198 13.023 9.75798 16.025 12.739 17.312C13.448 17.618 14.002 17.801 14.433 17.938C15.145 18.164 15.793 18.132 16.305 18.056C16.876 17.971 18.063 17.337 18.311 16.643C18.559 15.948 18.559 15.353 18.484 15.229Z" fill="#E8C895"/>
</svg>
